<?xml version="1.0" encoding="utf-8"?>
<!-- Generator: Adobe Illustrator 27.5.0, SVG Export Plug-In . SVG Version: 6.00 Build 0)  -->
<svg version="1.1" id="Capa_1" xmlns="http://www.w3.org/2000/svg" xmlns:xlink="http://www.w3.org/1999/xlink" x="0px" y="0px"
	 viewBox="0 0 1080 1080" style="enable-background:new 0 0 1080 1080;" xml:space="preserve">
<style type="text/css">
	.st0{fill:#513DCB;}
</style>
<path class="st0" d="M0,0v1097.35h1080V0H0z M174.72,695.29c-15.11,0-27.36-12.25-27.36-27.36s12.25-27.36,27.36-27.36
	c15.11,0,27.36,12.25,27.36,27.36S189.83,695.29,174.72,695.29z M488.34,692.78h-49.83L294.17,462.93v229.85h-43.94V402.06h55.36
	L444.56,620.7l0.67-218.65h43.11V692.78z M709.07,692.78H549.75V402.06h151.94v40.62H596.96v82.02h95.67v40.95h-95.67v83.25
	l112.12,0.67V692.78z M932.63,442.68h-79.89v250.1h-47.67v-250.1h-81.23v-40.62h208.79V442.68z"/>
</svg>
