<?xml version="1.0" encoding="utf-8"?>
<!-- Generator: Adobe Illustrator 27.5.0, SVG Export Plug-In . SVG Version: 6.00 Build 0)  -->
<svg version="1.1" id="Capa_1" xmlns="http://www.w3.org/2000/svg" xmlns:xlink="http://www.w3.org/1999/xlink" x="0px" y="0px"
	 viewBox="0 0 1080 1080" style="background-color: white 0 0 1080 1080;" xml:space="preserve">
<path d="M540.32,0.78C242.26,0.78,0.64,242.4,0.64,540.46s241.62,539.68,539.68,539.68c93,0,180.51-23.53,256.9-64.95
	c-0.48-0.23-0.67-0.43-0.49-0.55c-7.45-9.92-14.64-19.39-21.73-28.94c-32.09-43.16-64.17-86.32-96.2-129.51
	c-19.53-26.33-39.67-52.24-58.29-79.21c-34.12-49.4-67.24-99.48-100.92-149.19c-37.26-54.99-74.67-109.88-112.02-164.8
	c-0.67-0.99-1.43-1.92-2.84-3.8c-0.14,2.14-0.27,3.25-0.28,4.37c-0.25,33.53-0.59,67.05-0.71,100.58
	c-0.18,47.65-0.15,95.31-0.32,142.96c-0.07,20.14-0.37,40.28-0.73,60.41c-0.06,3.65-0.21,7.55-1.5,10.86
	c-2.91,7.42-8.83,11.39-16.83,11.58c-10.43,0.25-20.89,0.56-31.29-0.01c-3.13-0.17-6.53-2.71-9.06-4.99
	c-4.28-3.85-6.73-8.7-6.72-14.89c0.15-88.07,0.15-176.13,0.24-264.2c0.04-41.88,0.21-83.76,0.33-125.64
	c0.02-8.6-0.03-17.2,0.25-25.79c0.07-2,1-4.22,2.16-5.91c4.39-6.36,10.56-9.94,18.35-9.96c10.91-0.03,21.83,0.16,32.74,0.52
	c6.02,0.2,10.64,3.12,14.03,8.22c35.19,52.98,70.54,105.85,105.62,158.9c45.85,69.33,91.48,138.81,137.26,208.19
	c57.54,87.22,115.12,174.41,172.68,261.6c3.8,5.76,7.65,11.49,11.99,17.99C981.59,897.89,1080,730.67,1080,540.46
	C1080,242.4,838.38,0.78,540.32,0.78z M736.95,656.05c-0.03,19.77-0.07,39.54-0.11,59.31c0,1.33,0,2.66,0,4
	c-0.36,0.14-0.72,0.28-1.09,0.42c-1.26-1.89-2.53-3.76-3.77-5.67c-19.85-30.44-39.67-60.89-59.58-91.28
	c-1.83-2.79-2.63-5.55-2.63-8.9c0.08-59.19-0.02-118.38,0.09-177.58c0.06-30.94,0.4-61.88,0.75-92.82
	c0.12-10.95,7.82-19.17,18.8-19.71c9.43-0.46,18.89-0.15,28.34-0.09c9.79,0.05,19.06,9.29,19.04,19.92
	c-0.14,69.01,0.19,138.02,0.28,207.04C737.13,585.81,737.01,620.93,736.95,656.05z"/>
</svg>
